<svg width="100%" height="auto" viewBox="0 0 7059 1203" fill="none" xmlns="http://www.w3.org/2000/svg">
<path fill-rule="evenodd" clip-rule="evenodd" d="M2375.05 0H2849.29L2821.67 60H2828.06C2891.14 21.5104 2964.7 0 3041.6 0H3674.09L3645.78 60H3734.09L3536 479.919C3524.57 504.155 3510.95 526.913 3495.43 548H3503.59L3305.5 967.919C3237.8 1111.44 3093.37 1203 2934.69 1203H1894L1921.62 1143H1834L2144.49 468.5H2078.33L2130.72 408.5H2018.33L2375.05 0ZM2196.75 378.5L2144.35 438.5H2191.33L1880.84 1113H1968.46L1940.84 1173H2934.69C3081.76 1173 3215.63 1088.13 3278.37 955.12L3456.26 578H3429.53C3432.43 575.193 3435.29 572.337 3438.1 569.434C3444.38 562.957 3450.44 556.245 3456.26 549.305C3456.63 548.871 3456.99 548.436 3457.36 548C3477.59 523.667 3494.98 496.574 3508.87 467.121L3686.76 90H3598.46L3626.76 30H3041.6C2967.45 30 2896.67 51.5715 2836.66 90H2774.83L2802.45 30H2388.68L2084.35 378.5H2196.75Z" fill="white"/>
<path d="M207.767 201L7021.53 201L6851.77 1003H38L207.767 201Z" fill="black"/>
<path fill-rule="evenodd" clip-rule="evenodd" d="M183.453 171H7058.55L6876.08 1033H0.984863L183.453 171ZM207.767 201H7021.53L6851.77 1003H38L207.767 201Z" fill="white"/>
<path fill-rule="evenodd" clip-rule="evenodd" d="M2802.45 30H2388.68L2084.35 378.5H2196.75L2144.35 438.5H2191.33L1880.84 1113H1968.46L1940.84 1173H2934.69C3081.76 1173 3215.63 1088.13 3278.37 955.12L3456.26 578H3429.53C3461.9 546.668 3488.97 509.317 3508.87 467.121L3686.76 90H3598.46L3626.76 30H3041.6C2967.46 30 2896.67 51.5715 2836.66 90H2774.84L2802.45 30Z" fill="black"/>
<path fill-rule="evenodd" clip-rule="evenodd" d="M3421.74 394.322L3579.44 60H3041.6C2906.14 60 2782.84 138.165 2725.05 260.679L2567.35 595H2635.91C2575.43 629.975 2525.56 682.942 2494.55 748.678L2336.85 1083H2874.69C3010.15 1083 3133.45 1004.83 3191.24 882.321L3348.94 548H3280.38C3340.86 513.025 3390.73 460.058 3421.74 394.322ZM3125.35 215.119C3140.01 204.967 3155.32 197.62 3170.24 193.707L3061.41 420.387L3061.41 420.391C3049.99 444.097 3029.08 468.16 3004.02 485.515C2989.36 495.667 2974.05 503.014 2959.13 506.927L3067.97 280.234C3079.38 256.531 3100.29 232.472 3125.35 215.119ZM2790.94 927.881C2776.29 938.033 2760.97 945.38 2746.05 949.293L2854.88 722.613L2854.89 722.6C2866.31 698.896 2887.22 674.838 2912.27 657.485C2926.93 647.333 2942.24 639.986 2957.16 636.073L2848.33 862.753L2848.33 862.766C2836.91 886.469 2816 910.528 2790.94 927.881Z" fill="#420080"/>
<path fill-rule="evenodd" clip-rule="evenodd" d="M3324.22 518C3364.95 485.335 3398.59 443.385 3421.74 394.322L3579.44 60H3041.6C2906.14 60 2782.84 138.165 2725.05 260.679L2567.35 595H2635.91C2620.57 603.871 2605.91 613.899 2592.07 625C2551.35 657.665 2517.7 699.615 2494.55 748.678L2336.85 1083H2874.69C3010.15 1083 3133.45 1004.83 3191.24 882.321L3348.94 548H3280.38C3295.72 539.129 3310.38 529.101 3324.22 518ZM3301.62 578H3168.57L3265.36 522.029C3320.67 490.046 3366.25 441.625 3394.61 381.523L3532.12 90H3041.6C2917.75 90 2805.02 161.465 2752.19 273.478L2614.67 565H2747.72L2650.93 620.971C2595.62 652.954 2550.04 701.375 2521.69 761.477L2384.17 1053H2874.69C2998.54 1053 3111.27 981.535 3164.11 869.522L3301.62 578ZM3225.35 148.235L3088.43 433.407L3088.41 433.451L3088.4 433.482C3074.49 462.332 3049.93 490.211 3021.1 510.177C3004.07 521.973 2985.59 531 2966.74 535.945L2904.02 552.399L3040.94 267.215C3054.84 238.343 3079.42 210.437 3108.27 190.457C3125.3 178.661 3143.77 169.634 3162.62 164.689L3225.35 148.235ZM3061.41 420.391L3061.41 420.387L3170.24 193.707C3155.99 197.444 3141.38 204.314 3127.33 213.769C3126.67 214.213 3126.01 214.663 3125.35 215.119C3100.29 232.472 3079.38 256.531 3067.97 280.234L2959.13 506.927C2973.38 503.19 2987.99 496.32 3002.04 486.865C3002.7 486.421 3003.36 485.971 3004.02 485.515C3029.08 468.16 3049.99 444.097 3061.41 420.391ZM2690.95 994.764L2827.86 709.587L2827.86 709.581C2827.87 709.573 2827.87 709.566 2827.87 709.559C2841.78 680.695 2866.35 652.798 2895.19 632.823C2912.22 621.027 2930.7 612 2949.55 607.055L3012.27 590.601L2875.36 875.769L2875.35 875.783L2875.35 875.785C2861.45 904.657 2836.87 932.563 2808.02 952.543C2790.99 964.339 2772.52 973.366 2753.67 978.311L2690.95 994.764ZM2854.88 722.613L2854.89 722.6C2866.31 698.896 2887.22 674.838 2912.27 657.485C2912.93 657.029 2913.59 656.579 2914.25 656.135C2928.31 646.68 2942.91 639.81 2957.16 636.073L2848.33 862.753L2848.33 862.766C2836.91 886.469 2816 910.528 2790.94 927.881C2790.29 928.337 2789.63 928.787 2788.96 929.231C2774.91 938.686 2760.3 945.556 2746.05 949.293L2854.88 722.613Z" fill="#52DAE8"/>
<path d="M2755.62 60H2402.31L2150.38 348.5H2265.78L1927.67 1083H2284.71L2755.62 60Z" fill="#420080"/>
<path fill-rule="evenodd" clip-rule="evenodd" d="M1927.67 1083H2284.71L2755.62 60H2402.31L2150.38 348.5H2265.78L1927.67 1083ZM2216.4 318.5H2312.62L1974.51 1053H2265.49L2708.78 90H2415.94L2216.4 318.5Z" fill="#52DAE8"/>
<path d="M441.106 562.974L674.708 301H781.578L569.729 530.818L713.483 902.5H507.309L424.083 638.634L368.283 902.5H164L291.677 301.946H496.906L441.106 562.974Z" fill="white"/>
<path d="M1243.48 902.5H1022.18L917.198 468.399L824.514 902.5H739.396L867.073 301.946H1093.11L1192.41 741.722L1286.04 301.946H1373.05L1243.48 902.5Z" fill="white"/>
<path d="M1927.79 439.08C1927.79 457.365 1924.95 473.758 1919.28 488.259C1914.23 502.761 1906.98 515.686 1897.52 527.035C1888.07 538.384 1877.03 548.472 1864.42 557.3C1851.81 566.127 1837.94 574.323 1822.81 581.889C1829.74 584.411 1837.94 588.509 1847.4 594.184C1856.86 599.228 1866 606.479 1874.83 615.936C1883.65 625.394 1890.9 637.689 1896.58 652.821C1902.88 667.322 1906.04 685.292 1906.04 706.729C1906.04 735.101 1900.05 761.267 1888.07 785.226C1876.09 809.186 1858.12 829.992 1834.16 847.646C1810.83 864.67 1781.83 878.226 1747.15 888.314C1713.1 897.771 1673.7 902.5 1628.93 902.5H1348.04L1475.72 301.946H1724.45C1749.04 301.946 1773.31 303.837 1797.27 307.62C1821.86 310.773 1843.62 317.393 1862.53 327.481C1882.08 337.569 1897.84 351.756 1909.82 370.04C1921.8 387.694 1927.79 410.708 1927.79 439.08ZM1670.54 553.517C1684.41 553.517 1696.08 549.418 1705.54 541.222C1715.62 533.025 1723.82 522.937 1730.13 510.958C1736.43 498.347 1741.16 485.107 1744.31 471.236C1747.46 456.734 1749.04 443.809 1749.04 432.46C1749.04 414.175 1744.63 398.728 1735.8 386.118C1727.6 372.877 1714.36 366.257 1696.08 366.257H1667.71L1627.04 553.517H1670.54ZM1602.45 842.917C1621.36 842.917 1637.13 837.558 1649.74 826.84C1662.35 816.121 1672.75 802.881 1680.95 787.118C1689.14 771.355 1694.82 754.962 1697.97 737.939C1701.75 720.285 1703.64 704.837 1703.64 691.597C1703.64 669.529 1698.92 652.19 1689.46 639.58C1680.63 626.34 1666.13 619.719 1645.95 619.719H1610.96L1564.62 842.917H1602.45Z" fill="white"/>
<path d="M4168.56 445.124C4168.56 482.289 4158.15 516.619 4137.33 548.115C4116.51 579.611 4082.13 603.547 4034.18 619.925L4143.95 902.441H3932.92L3849.65 640.712H3839.24L3783.41 902.441H3579L3706.75 302.449H3955.64C3984.66 302.449 4012.1 304.338 4037.97 308.118C4063.83 311.268 4086.23 318.197 4105.15 328.905C4124.71 338.984 4140.17 353.472 4151.52 372.369C4162.88 390.637 4168.56 414.888 4168.56 445.124ZM3896.02 580.24C3912.42 580.24 3926.3 574.886 3937.66 564.178C3949.64 552.839 3959.11 539.296 3966.05 523.548C3973.62 507.8 3978.98 491.108 3982.13 473.47C3985.29 455.203 3986.86 439.455 3986.86 426.227C3986.86 409.849 3984.03 395.991 3978.35 384.652C3972.67 372.684 3960.37 366.7 3941.44 366.7H3898.86L3851.54 580.24H3896.02Z" fill="white"/>
<path d="M4702.11 902.441H4480.67L4467.42 752.207H4292.35L4225.16 902.441H4133.37L4412.53 302.449H4636.81L4702.11 902.441ZM4323.58 683.231H4460.79L4439.03 426.227L4323.58 683.231Z" fill="white"/>
<path d="M5258.66 851.418C5242.89 858.977 5226.49 866.536 5209.45 874.095C5193.05 881.024 5175.39 887.323 5156.46 892.992C5137.53 898.032 5116.71 902.126 5094 905.276C5071.92 908.425 5047.63 910 5021.13 910C4936.6 910 4871.3 891.103 4825.25 853.308C4779.82 815.513 4757.11 752.522 4757.11 664.334C4757.11 613.311 4765 565.437 4780.77 520.714C4796.54 475.36 4819.88 435.99 4850.8 402.605C4881.71 368.59 4919.88 341.818 4965.3 322.291C5010.73 302.764 5062.77 293 5121.44 293C5149.2 293 5174.44 294.89 5197.15 298.669C5220.49 302.449 5241.31 307.488 5259.61 313.787C5278.53 319.456 5295.25 325.755 5309.76 332.685C5324.9 339.614 5338.47 346.228 5350.45 352.527L5316.39 528.273H5146.05C5146.68 521.973 5147.31 513.785 5147.94 503.706C5149.2 493.627 5150.15 483.549 5150.78 473.47C5151.41 462.762 5152.04 452.368 5152.67 442.289C5153.3 432.211 5153.62 423.707 5153.62 416.778C5153.62 411.739 5153.3 406.069 5152.67 399.77C5152.04 392.841 5150.47 386.227 5147.94 379.928C5145.42 373.629 5141.32 368.59 5135.64 364.81C5130.59 360.401 5123.65 358.196 5114.82 358.196C5098.42 358.196 5083.28 365.125 5069.4 378.983C5056.15 392.211 5044.16 410.164 5033.44 432.841C5022.71 454.888 5013.25 480.084 5005.05 508.43C4996.85 536.776 4989.91 565.752 4984.23 595.358C4979.18 624.334 4975.08 652.995 4971.93 681.341C4969.4 709.688 4968.14 734.569 4968.14 755.986C4968.14 762.285 4968.46 770.159 4969.09 779.608C4969.72 789.057 4971.61 798.19 4974.77 807.009C4977.92 815.828 4982.65 823.387 4988.96 829.686C4995.9 835.985 5005.05 839.135 5016.4 839.135C5035.96 839.135 5054.89 827.166 5073.18 803.23C5091.48 778.663 5107.57 735.199 5121.44 672.838H5296.51L5258.66 851.418Z" fill="white"/>
<path d="M5533.73 902.441H5329.33L5457.08 302.449H5662.43L5533.73 902.441Z" fill="white"/>
<path d="M6142.38 902.441H5920.94L5815.9 468.746L5723.16 902.441H5637.99L5765.74 302.449H5991.91L6091.28 741.813L6184.96 302.449H6272.02L6142.38 902.441Z" fill="white"/>
<path d="M6582.94 628.429H6828.04L6773.15 902.441H6661.49L6643.51 841.969H6639.72C6623.32 860.867 6603.76 876.93 6581.05 890.158C6558.97 903.386 6529.95 910 6493.99 910C6466.23 910 6439.42 905.591 6413.55 896.772C6388.32 887.323 6365.6 872.835 6345.42 853.308C6325.86 833.151 6310.09 807.009 6298.1 774.884C6286.11 742.758 6280.12 704.018 6280.12 658.665C6280.12 609.531 6287.69 562.918 6302.83 518.824C6317.97 474.73 6340.68 435.99 6370.97 402.605C6401.25 368.59 6439.1 341.818 6484.52 322.291C6529.95 302.764 6582.94 293 6643.51 293C6690.19 293 6730.88 298.354 6765.58 309.063C6800.28 319.771 6833.09 331.74 6864 344.968L6828.04 528.273H6668.11C6668.74 521.344 6669.69 513.155 6670.95 503.706C6672.21 494.257 6673.16 484.494 6673.79 474.415C6674.42 463.707 6675.05 453.313 6675.68 443.234C6676.31 433.156 6676.63 424.337 6676.63 416.778C6676.63 411.739 6676.31 406.069 6675.68 399.77C6675.05 392.841 6673.47 386.227 6670.95 379.928C6668.43 373.629 6664.64 368.59 6659.59 364.81C6654.55 360.401 6647.29 358.196 6637.83 358.196C6621.43 358.196 6606.28 365.125 6592.41 378.983C6579.16 392.211 6567.17 410.164 6556.45 432.841C6545.72 454.888 6536.26 480.084 6528.06 508.43C6520.49 536.776 6513.86 565.752 6508.18 595.358C6503.14 624.334 6499.04 652.995 6495.88 681.341C6493.36 709.058 6492.1 733.309 6492.1 754.096C6492.1 760.396 6492.41 768.27 6493.04 777.718C6493.67 787.167 6495.57 796.616 6498.72 806.064C6502.51 814.883 6507.55 822.757 6513.86 829.686C6520.8 835.985 6530.58 839.135 6543.2 839.135C6564.02 839.135 6584.2 827.796 6603.76 805.119C6623.32 782.443 6638.14 744.648 6648.24 691.735H6568.75L6582.94 628.429Z" fill="white"/>
</svg>
