<svg width="731" height="640" viewBox="0 0 731 640" fill="none" xmlns="http://www.w3.org/2000/svg">
<mask id="path-1-inside-1_968_239" fill="white">
<path fill-rule="evenodd" clip-rule="evenodd" d="M411.136 56.0088C413.237 24.491 439.415 0 471.003 0H670.736C705.444 0 732.912 29.3602 730.603 63.9911L716.369 277.506C715.402 292.007 709.205 305.664 698.928 315.941L694.87 320L695.618 320.748C707.852 332.982 714.209 349.902 713.058 367.166L698.603 583.991C696.502 615.509 670.324 640 638.736 640H439.003C404.295 640 376.827 610.64 379.136 576.009L393.37 362.494C394.337 347.993 400.534 334.336 410.811 324.059L414.87 320L414.121 319.252C401.887 307.018 395.53 290.098 396.681 272.834L411.136 56.0088ZM537.202 111.294C537.579 103.293 544.175 97 552.185 97H581.277C589.838 97 596.663 104.154 596.26 112.706L590.798 228.706C590.421 236.707 583.825 243 575.815 243H546.723C538.162 243 531.337 235.846 531.74 227.294L537.202 111.294ZM534.185 397C526.175 397 519.579 403.293 519.202 411.294L513.74 527.294C513.337 535.846 520.162 543 528.723 543H557.815C565.825 543 572.421 536.707 572.798 528.706L578.26 412.706C578.663 404.154 571.838 397 563.277 397H534.185Z"/>
</mask>
<path fill-rule="evenodd" clip-rule="evenodd" d="M411.136 56.0088C413.237 24.491 439.415 0 471.003 0H670.736C705.444 0 732.912 29.3602 730.603 63.9911L716.369 277.506C715.402 292.007 709.205 305.664 698.928 315.941L694.87 320L695.618 320.748C707.852 332.982 714.209 349.902 713.058 367.166L698.603 583.991C696.502 615.509 670.324 640 638.736 640H439.003C404.295 640 376.827 610.64 379.136 576.009L393.37 362.494C394.337 347.993 400.534 334.336 410.811 324.059L414.87 320L414.121 319.252C401.887 307.018 395.53 290.098 396.681 272.834L411.136 56.0088ZM537.202 111.294C537.579 103.293 544.175 97 552.185 97H581.277C589.838 97 596.663 104.154 596.26 112.706L590.798 228.706C590.421 236.707 583.825 243 575.815 243H546.723C538.162 243 531.337 235.846 531.74 227.294L537.202 111.294ZM534.185 397C526.175 397 519.579 403.293 519.202 411.294L513.74 527.294C513.337 535.846 520.162 543 528.723 543H557.815C565.825 543 572.421 536.707 572.798 528.706L578.26 412.706C578.663 404.154 571.838 397 563.277 397H534.185Z" fill="#581C87"/>
<path d="M411.136 56.0088L396.169 55.011L396.169 55.011L411.136 56.0088ZM730.603 63.9911L745.57 64.9889L745.57 64.9889L730.603 63.9911ZM716.369 277.506L731.336 278.504L731.336 278.504L716.369 277.506ZM698.928 315.941L688.322 305.334L688.322 305.335L698.928 315.941ZM694.87 320L684.263 309.393L673.657 320L684.263 330.606L694.87 320ZM695.618 320.748L685.011 331.355L685.011 331.355L695.618 320.748ZM713.058 367.166L698.092 366.168L698.092 366.168L713.058 367.166ZM698.603 583.991L713.57 584.989L713.57 584.989L698.603 583.991ZM379.136 576.009L364.169 575.011L364.169 575.011L379.136 576.009ZM393.37 362.494L378.403 361.496L378.403 361.496L393.37 362.494ZM410.811 324.059L421.417 334.666L421.417 334.666L410.811 324.059ZM414.87 320L425.476 330.607L436.083 320L425.476 309.393L414.87 320ZM414.121 319.252L424.728 308.645L424.728 308.645L414.121 319.252ZM396.681 272.834L381.714 271.836L381.714 271.836L396.681 272.834ZM537.202 111.294L552.185 112L552.185 112L537.202 111.294ZM596.26 112.706L611.244 113.411L611.244 113.411L596.26 112.706ZM590.798 228.706L575.815 228L575.815 228L590.798 228.706ZM531.74 227.294L516.756 226.589L516.756 226.589L531.74 227.294ZM519.202 411.294L534.185 412L534.185 412L519.202 411.294ZM513.74 527.294L498.756 526.589L498.756 526.589L513.74 527.294ZM572.798 528.706L557.815 528L557.815 528L572.798 528.706ZM578.26 412.706L593.244 413.411L593.244 413.411L578.26 412.706ZM471.003 -15C431.518 -15 398.795 15.6137 396.169 55.011L426.102 57.0066C427.678 33.3682 447.312 15 471.003 15V-15ZM670.736 -15H471.003V15H670.736V-15ZM745.57 64.9889C748.456 21.7002 714.121 -15 670.736 -15V15C696.767 15 717.368 37.0201 715.637 62.9934L745.57 64.9889ZM731.336 278.504L745.57 64.9889L715.637 62.9934L701.402 276.508L731.336 278.504ZM709.535 326.548C722.381 313.702 730.127 296.63 731.336 278.504L701.402 276.508C700.677 287.384 696.029 297.627 688.322 305.334L709.535 326.548ZM705.476 330.607L709.535 326.548L688.322 305.335L684.263 309.393L705.476 330.607ZM706.225 310.142L705.476 309.394L684.263 330.606L685.011 331.355L706.225 310.142ZM728.025 368.164C729.464 346.584 721.517 325.434 706.224 310.142L685.011 331.355C694.187 340.531 698.955 353.22 698.092 366.168L728.025 368.164ZM713.57 584.989L728.025 368.164L698.092 366.168L683.637 582.993L713.57 584.989ZM638.736 655C678.221 655 710.944 624.386 713.57 584.989L683.637 582.993C682.061 606.632 662.427 625 638.736 625V655ZM439.003 655H638.736V625H439.003V655ZM364.169 575.011C361.283 618.3 395.618 655 439.003 655V625C412.972 625 392.371 602.98 394.102 577.007L364.169 575.011ZM378.403 361.496L364.169 575.011L394.102 577.007L408.337 363.492L378.403 361.496ZM400.204 313.452C387.358 326.298 379.612 343.37 378.403 361.496L408.337 363.492C409.062 352.616 413.71 342.373 421.417 334.666L400.204 313.452ZM404.263 309.393L400.204 313.452L421.417 334.666L425.476 330.607L404.263 309.393ZM403.515 329.858L404.263 330.607L425.476 309.393L424.728 308.645L403.515 329.858ZM381.714 271.836C380.275 293.416 388.222 314.566 403.515 329.858L424.728 308.645C415.552 299.469 410.784 286.78 411.647 273.832L381.714 271.836ZM396.169 55.011L381.714 271.836L411.647 273.832L426.102 57.0066L396.169 55.011ZM552.185 82C536.165 82 522.972 94.5867 522.218 110.589L552.185 112L552.185 112V82ZM581.277 82H552.185V112H581.277V82ZM611.244 113.411C612.049 96.3075 598.4 82 581.277 82V112L581.277 112L611.244 113.411ZM605.782 229.411L611.244 113.411L581.277 112L575.815 228L605.782 229.411ZM575.815 258C591.835 258 605.028 245.413 605.782 229.411L575.815 228L575.815 228V258ZM546.723 258H575.815V228H546.723V258ZM516.756 226.589C515.951 243.692 529.6 258 546.723 258V228L546.723 228L516.756 226.589ZM522.218 110.589L516.756 226.589L546.723 228L552.185 112L522.218 110.589ZM534.185 412L534.185 412V382C518.165 382 504.972 394.587 504.218 410.589L534.185 412ZM528.723 528L534.185 412L504.218 410.589L498.756 526.589L528.723 528ZM528.723 528L528.723 528L498.756 526.589C497.951 543.692 511.6 558 528.723 558V528ZM557.815 528H528.723V558H557.815V528ZM557.815 528L557.815 528V558C573.835 558 587.028 545.413 587.782 529.411L557.815 528ZM563.277 412L557.815 528L587.782 529.411L593.244 413.411L563.277 412ZM563.277 412L563.277 412L593.244 413.411C594.049 396.308 580.4 382 563.277 382V412ZM534.185 412H563.277V382H534.185V412Z" fill="white" mask="url(#path-1-inside-1_968_239)"/>
<path d="M157.414 9.37626C157.743 4.10591 162.114 0 167.395 0H318.355C324.124 0 328.696 4.8668 328.336 10.6238L292.516 583.743C290.54 615.365 264.317 640 232.633 640H181.867C147.258 640 119.825 610.799 121.984 576.257L157.414 9.37626Z" fill="white"/>
<path d="M347.362 543C353.128 543 357.699 547.863 357.343 553.617L352.58 630.616C352.254 635.89 347.882 639.999 342.599 639.999L17.4751 639.999C9.74295 639.999 4.93611 631.599 8.8535 624.933L57 543L347.362 543Z" fill="white"/>
<path d="M236.5 115H291.693L214.954 219.563L206.193 231.5H221H256.178L40.0451 563.949L135.009 314.67L138.883 304.5H128H79.2565C77.3355 304.5 76.1323 302.424 77.0874 300.757L143.007 185.729L149.442 174.5H136.5H56.0215C54.059 174.5 52.8617 172.342 53.9002 170.677L153.459 11.0313C154.829 8.83485 157.235 7.5 159.823 7.5H302.902L230.523 102.969L221.402 115H236.5Z" fill="#581C87" stroke="white" stroke-width="15"/>
<path fill-rule="evenodd" clip-rule="evenodd" d="M125.936 550L132.5 432L59 548.5L125.936 550ZM75.3845 540.37C71.9678 540.37 69.9129 536.5 71.7769 533.576L118.031 461.021C120.438 457.246 126.186 459.17 125.936 463.667L122.144 532.076C121.886 536.73 118.114 540.37 113.549 540.37H75.3845Z" fill="white"/>
</svg>
