<svg width="100%" height="auto" viewBox="0 0 1901 1203" fill="none" xmlns="http://www.w3.org/2000/svg">
<path fill-rule="evenodd" clip-rule="evenodd" d="M968.455 30H554.677L250.353 378.5H362.747L310.353 438.5H357.326L46.8359 1113H134.455L106.836 1173H1100.69C1247.76 1173 1381.63 1088.13 1444.37 955.12L1622.26 578H1595.53C1627.9 546.668 1654.97 509.317 1674.87 467.121L1852.76 90H1764.46L1792.76 30H1207.6C1133.46 30 1062.67 51.5715 1002.66 90H940.835L968.455 30Z" fill="black"/>
<path fill-rule="evenodd" clip-rule="evenodd" d="M541.045 0H1015.29L987.671 60H994.06C1057.14 21.5104 1130.7 0 1207.6 0H1840.09L1811.78 60H1900.09L1702 479.919C1690.57 504.155 1676.95 526.913 1661.43 548H1669.59L1471.5 967.919C1403.8 1111.44 1259.37 1203 1100.69 1203H60L87.6196 1143H0L310.49 468.5H244.327L296.721 408.5H184.327L541.045 0ZM362.747 378.5L310.353 438.5H357.325L46.8357 1113H134.455L106.836 1173H1100.69C1247.76 1173 1381.63 1088.13 1444.37 955.12L1622.26 578H1595.53C1598.43 575.193 1601.29 572.337 1604.1 569.434C1610.38 562.957 1616.44 556.245 1622.26 549.305C1622.63 548.871 1622.99 548.436 1623.36 548C1643.59 523.667 1660.98 496.574 1674.87 467.121L1852.76 90H1764.46L1792.76 30H1207.6C1133.45 30 1062.67 51.5715 1002.66 90H940.835L968.454 30H554.677L250.353 378.5H362.747Z" fill="white"/>
<path fill-rule="evenodd" clip-rule="evenodd" d="M1587.74 394.322L1745.44 60H1207.6C1072.14 60 948.844 138.165 891.053 260.679L733.348 595H801.913C741.429 629.975 691.562 682.942 660.553 748.678L502.848 1083H1040.69C1176.15 1083 1299.45 1004.83 1357.24 882.321L1514.94 548H1446.38C1506.86 513.025 1556.73 460.058 1587.74 394.322ZM1291.35 215.119C1306.01 204.967 1321.32 197.62 1336.24 193.707L1227.41 420.387L1227.41 420.391C1215.99 444.097 1195.08 468.16 1170.02 485.515C1155.36 495.667 1140.05 503.014 1125.13 506.927L1233.97 280.234C1245.38 256.531 1266.29 232.472 1291.35 215.119ZM956.943 927.881C942.285 938.033 926.972 945.38 912.055 949.293L1020.88 722.613L1020.89 722.6C1032.31 698.896 1053.22 674.838 1078.27 657.485C1092.93 647.333 1108.24 639.986 1123.16 636.073L1014.33 862.753L1014.33 862.766C1002.91 886.469 981.997 910.528 956.943 927.881Z" fill="#420080"/>
<path fill-rule="evenodd" clip-rule="evenodd" d="M1490.22 518C1530.95 485.335 1564.59 443.385 1587.74 394.322L1745.44 60H1207.6C1072.14 60 948.844 138.165 891.053 260.679L733.348 595H801.913C786.572 603.871 771.914 613.899 758.074 625C717.346 657.665 683.697 699.615 660.553 748.678L502.848 1083H1040.69C1176.15 1083 1299.45 1004.83 1357.24 882.321L1514.94 548H1446.38C1461.72 539.129 1476.38 529.101 1490.22 518ZM1467.62 578H1334.57L1431.36 522.029C1486.67 490.046 1532.25 441.625 1560.61 381.523L1698.12 90H1207.6C1083.75 90 971.024 161.465 918.186 273.478L780.669 565H913.722L816.931 620.971C761.621 652.954 716.037 701.375 687.686 761.477L550.169 1053H1040.69C1164.54 1053 1277.27 981.535 1330.11 869.522L1467.62 578ZM1391.35 148.235L1254.43 433.407L1254.41 433.451L1254.4 433.482C1240.49 462.332 1215.93 490.211 1187.1 510.177C1170.07 521.973 1151.59 531 1132.74 535.945L1070.02 552.399L1206.94 267.215C1220.84 238.343 1245.42 210.437 1274.27 190.457C1291.3 178.661 1309.77 169.634 1328.62 164.689L1391.35 148.235ZM1227.41 420.391L1227.41 420.387L1336.24 193.707C1321.99 197.444 1307.38 204.314 1293.33 213.769C1292.67 214.213 1292.01 214.663 1291.35 215.119C1266.29 232.472 1245.38 256.531 1233.97 280.234L1125.13 506.927C1139.38 503.19 1153.99 496.32 1168.04 486.865C1168.7 486.421 1169.36 485.971 1170.02 485.515C1195.08 468.16 1215.99 444.097 1227.41 420.391ZM856.946 994.764L993.859 709.587L993.862 709.581C993.866 709.573 993.869 709.566 993.873 709.559C1007.78 680.695 1032.35 652.798 1061.19 632.823C1078.22 621.027 1096.7 612 1115.55 607.055L1178.27 590.601L1041.36 875.769L1041.35 875.783L1041.35 875.785C1027.45 904.657 1002.87 932.563 974.025 952.543C956.993 964.339 938.517 973.366 919.667 978.311L856.946 994.764ZM1020.88 722.613L1020.89 722.6C1032.31 698.896 1053.22 674.838 1078.27 657.485C1078.93 657.029 1079.59 656.579 1080.25 656.135C1094.31 646.68 1108.91 639.81 1123.16 636.073L1014.33 862.753L1014.33 862.766C1002.91 886.469 981.997 910.528 956.943 927.881C956.285 928.337 955.626 928.787 954.965 929.231C940.911 938.686 926.302 945.556 912.055 949.293L1020.88 722.613Z" fill="#52DAE8"/>
<path d="M921.619 60H568.308L316.379 348.5H431.781L93.6719 1083H450.706L921.619 60Z" fill="#420080"/>
<path fill-rule="evenodd" clip-rule="evenodd" d="M93.6719 1083H450.706L921.619 60H568.308L316.379 348.5H431.781L93.6719 1083ZM382.404 318.5H478.617L140.508 1053H431.49L874.784 90H581.939L382.404 318.5Z" fill="#52DAE8"/>
</svg>
