<svg width="1889" height="894" viewBox="0 0 1889 894" fill="none" xmlns="http://www.w3.org/2000/svg">
<g opacity="0.2" clip-path="url(#clip0_981_3)">
<path d="M5.58496 446.997C10.1479 337.038 -7.90896 218.786 49.1821 117.183C112.974 26.2513 246.467 19.9321 354.362 9.49603C648.498 -6.31698 943.444 0.965311 1237.95 0.261441C1402.31 5.16807 1571.75 -3.19507 1730.6 41.1711C1821.7 63.8854 1871.67 145.973 1876.36 225.964C1888.62 363.666 1886.13 502.412 1879.46 640.333C1875.86 719.56 1845.64 811.265 1755.46 843.602C1607.56 896.089 1444.21 887.225 1288.07 893.208C984.606 893.72 680.806 899.46 377.606 886.066C268.355 876.001 138.392 874.004 61.5729 793.2C-5.87101 704.021 10.1532 590 5.61364 487.649C5.58429 474.098 5.58543 460.547 5.58496 446.997Z" fill="#4C4353"/>
<path d="M7.77689 892.334C4.84724 853.215 5.90501 819.864 9.34241 783.875C7.36331 779.723 5.40567 740.513 7.59278 723.114C7.88687 695.005 2.96814 642.78 8.09 608.24C2.43205 566.752 7.84192 516.541 6.59143 474.015C46.9324 467.112 10.5015 470.339 9.35382 462.087C14.8973 445.212 -3.5452 399.725 15.6219 423.448C39.3994 410.353 19.8099 466.737 37.6173 432.955C21.6397 474.011 54.8675 467.469 44.2339 426.183C130.625 439.62 -35.5554 418.859 7.15066 365.748C7.36349 342.192 -2.26955 287.754 25.0125 304.549C-42.0443 263.389 82.0312 274.075 117.848 291.019C85.7458 279.081 -40.6222 273.472 46.6466 231.345C93.3664 244.224 109.35 220.225 147.723 218.549C150.088 246.788 204.152 208.323 198.638 242.426C225.729 195.168 261.309 298.684 259.578 255.711C257.928 246.115 241.588 245.426 275.463 245.614C258.179 233.37 332.658 238.761 325.182 245.127C371.291 239.905 361.481 231.367 377.848 208.192C404.749 205.37 446.787 246.201 399.071 227.518C396.59 227.045 353.889 253.807 399.663 240.873C398.806 227.416 445.731 264.627 435.769 222.781C476.58 208.896 545.942 242.557 601.784 233.817C633.549 238.88 650.84 234.243 606.805 230.664C631.946 199.421 615.985 229.818 654.963 213.782C670.653 240.723 669.838 209.291 701.077 222.481C715.408 207.224 716.002 249.056 757.884 238.879C780.584 224.036 841.633 249.651 875.15 226.662C918.27 238.187 976.052 174.009 897.726 196.434C858.931 197.928 812.571 187.639 785.719 192.443C766.441 181.757 708.448 211.087 682.006 187.824C649.043 187.752 661.85 183.578 677.938 194.275C624.566 203.828 590.51 186.102 550.184 188.18C507.003 187.167 486.496 192.598 544.134 190.276C613.672 189.096 464.699 214.169 485.611 171.717C482.705 122.714 489.41 230.424 451.626 192.161C496.591 187.473 438.422 186.3 443.081 208.043C404.825 202.499 398.183 195.959 426.516 192.057C297.562 188.299 166.192 176.982 35.9633 174.517C-25.7454 164.768 21.5333 79.3076 5.60248 38.225C3.58814 -0.0376848 9.63796 16.233 36.2697 31.9367C55.864 49.6636 76.8487 61.6367 99.0223 75.3517C131.511 73.3503 64.4947 36.217 53.003 21.6463C81.7573 19.7045 -22.5697 -5.06964 55.8995 0.907526C97.8246 -3.84071 146.418 3.40465 182.802 -0.0555728C208.429 1.38058 268.629 0.962639 304.039 0.548108C331.587 4.21863 368.372 -9.18545 344.096 17.2387C369.712 -10.3819 394.301 15.9165 390.167 -0.570177C433.004 2.37382 473.131 -0.385925 516.525 0.134579C545.378 14.232 579.157 14.065 539.12 2.13837C622.6 -4.06624 704.557 3.01297 787.507 -0.122392C818.934 1.25469 838.029 7.20504 859.115 0.659877C880.924 18.9703 884.518 30.7282 881.752 -0.0571372C919.408 2.38301 940.677 3.27367 977.987 0.939573C1005.18 -1.33395 1044.2 2.66965 1053.91 2.9707C1102.11 -4.89174 1174.29 2.56233 1231.37 -0.0486538C1259.75 4.6644 1268.53 -0.183567 1288.07 1.21922C1310.28 1.63504 1340.1 0.760446 1365.8 1.7785C1383.33 0.446002 1429.27 -2.75574 1456.76 2.99157C1463.05 -2.09939 1507.93 4.70589 1508.52 9.63772C1509.2 -13.1027 1537.92 6.68235 1522.18 20.7858C1532.57 -2.85878 1542.84 -2.1663 1580.48 0.714535C1603.11 1.03776 1617.13 43.9705 1602.12 9.16677C1603.02 -5.67185 1641.13 2.0762 1655.03 1.21958C1676.45 -3.05196 1714.47 5.19117 1722.66 5.13479C1733.03 8.2941 1751.17 -3.56369 1792.52 -1.41254C1805.37 23.6575 1849.49 -3.04337 1847.33 25.4792C1849.12 45.1537 1830.53 167.291 1849.52 106.14C1856.2 83.0464 1842.22 -35.9536 1878.83 17.4624C1893.98 69.8493 1881.39 119.608 1882.66 169.952C1895.58 202.165 1836.96 188.829 1793.71 193.177C1740.75 189.888 1679.32 196.105 1622.71 194.903C1593.1 192.698 1579.12 191.819 1558.58 194.546C1512.18 196.531 1421.6 191.081 1405.17 189.761C1371.6 199.328 1311.68 189.669 1267.47 193.093C1228.87 194.362 1209.28 187.539 1171.09 194.783C1122.23 189.352 1067.62 198.568 1018.92 195.132C966.635 199.357 995.693 192.616 1015.85 214.938C1043.76 260.514 1084.31 203.323 1129.39 216.362C1125.38 204.39 1176.57 236.215 1207.33 225.912C1246.61 254.54 1302.46 223.875 1337.52 217.865C1349.87 186.125 1401.71 197.084 1420.55 216.029C1451.36 223.181 1352.2 214.787 1416.56 222.164C1449.65 222.39 1488.2 234.852 1516.01 208.454C1546.21 189.21 1558.22 221.179 1535.35 216.425C1564.89 206.939 1584.52 208.278 1563.61 219.552C1604.09 222.781 1622.95 241.892 1664.04 231.083C1645.09 196.482 1716.74 229.015 1675.71 223.259C1656.66 212.513 1702.82 260.112 1700.12 221.032C1740.74 232.439 1754.15 175.506 1807.24 211.668C1870.86 179.758 1901.27 248.526 1882.45 299.415C1885.2 438.908 1883.57 582.558 1882.97 719.945C1882.49 763.342 1885.48 813.672 1882.7 859.664C1829.21 906.228 1736.22 882.871 1666.6 892.343C1229.1 896.123 791.537 894.577 354.026 893.497C330.754 891.561 270.277 867.665 329.851 894.06C224.375 895.261 112.777 893.601 10.7441 894.297L7.77689 892.334ZM1549.41 869.469C1577.13 862.451 1594.59 811.104 1562.33 798.83C1533.69 805.283 1520.33 806.452 1517.14 804.757C1491.95 823.883 1511.93 888.631 1549.41 869.469ZM1466.03 789.58C1480.33 754.265 1567.52 765.758 1518.18 721.805C1493.86 696.356 1457.38 709.679 1443.49 736.758C1466.21 663.117 1559.44 718.56 1615.63 722.235C1647.83 723.796 1754.94 752.752 1748.34 734.898C1688.37 735.184 1622.43 727.71 1633.68 659.408C1603.92 592.479 1506.15 590.69 1438.36 576.079C1376.01 567.494 1293.95 555.698 1257.3 614.657C1241.47 648.298 1156.16 632.839 1230.17 666.666C1203.6 672.842 1293.21 694.983 1301.45 722.982C1305.23 692.13 1328.06 655.638 1313.62 710.996C1311.31 741.563 1317.04 781.813 1355.55 748.504C1335.55 737.087 1315.89 702.626 1351.35 686.792C1412.89 699.631 1345.1 688.933 1355.24 697.24C1409.93 710.025 1300.45 699.48 1362.24 725.125C1359.33 776.253 1448.09 741.394 1461.53 792.656L1466.03 789.58ZM1625.81 715.843C1621.93 686.872 1607.64 724.381 1597.49 699.169C1579.74 704.896 1518.32 693.969 1476.32 688.469C1423.96 673.801 1451.61 587.875 1513.48 619.718C1580.47 617.241 1654.75 654.685 1625.81 715.843ZM1387.64 682.786C1331.21 682.807 1252.75 647.571 1323.73 599.856C1396.19 569.476 1485.08 672.103 1387.64 682.786ZM898.567 761.922C833.066 761.859 928.38 630.709 866.399 689.824C863.325 716.993 838.076 764.62 852.567 708.884C884.506 673.329 843.915 641.623 835.929 694.204C796.238 796.499 806.966 576.193 888.272 649.854C922.028 667.639 888.537 777.932 919.584 722.748C964.369 739.754 946.889 674.488 942.913 661.06C890.751 655.822 855.257 618.125 787.257 631.204C757.11 615.004 726.707 568.346 738.25 629.107C737.962 665.913 763.276 610.978 757.526 659.079C749.204 676.512 772.03 712.73 739.769 700.424C796.302 713.874 835.631 738.365 893.545 761.072L898.567 761.922ZM552.897 544.318C552.536 541.122 573.468 549.662 587.435 522.306C628.115 493.616 697.645 496.002 753.557 515.273C825.073 551.23 787.656 421.701 730.145 433.822C681.706 410.687 540.973 411.41 555.237 429.267C571.6 449.849 531.168 495.273 527.127 463.714C480.407 477.552 528.644 526.384 551.869 549.257C552.904 552.852 562.623 559.381 552.897 544.318ZM763.931 514.436C722.308 515.112 709.808 492.437 710.671 491.351C674.352 513.276 571.976 488.004 631.253 446.99C682.107 455.82 799.265 441.035 780.091 513.951L774.118 515.805L763.931 514.436ZM584.833 494.86C496.102 467.308 623.834 390.712 600.657 484.4C599.195 490.059 592.853 499.468 584.833 494.86Z" fill="#0C090D"/>
<path d="M604.955 892.984C556.483 869.689 650.552 900.998 592.195 878.791C572.667 877.943 561.383 877.697 544.838 868.164C525.386 858.763 482.978 847.946 455.749 833.993C469.717 820.829 507.259 842.14 532.78 842.24C522.929 822.717 490.405 836.439 483.724 822.952C469.94 822.176 483.473 837.438 468.675 818.183C431.396 824.565 479.586 806.937 431.121 801.213C406.753 804.047 294.869 766.785 376.304 786.077C424.424 792.027 515.628 817.823 540.6 810.376C509.997 806.046 463.105 793.659 497.124 786.236C489.235 785.485 517.258 785.122 530.36 790.976C556.871 810.214 565.393 798.849 529.01 781.467C507.31 768.334 459.418 767.696 469.878 749.866C452.302 759.681 426.566 736.31 397.619 733.124C398.761 721.142 444.033 747.453 418.014 718.578C393.084 711.406 365.289 692.488 335.954 677.584C309.12 657.166 266.57 651.882 239.895 632.119C259.963 631.277 272.881 651.097 299.022 653.528C324.099 662.994 294.27 640.24 280.468 638.352C255.789 616.014 245.29 624.323 222.781 609.562C194.908 591.839 123.989 602.199 79.4783 592.433C41.6605 601.082 -10.9109 564.395 7.04912 548.985C13.7662 589.926 35.2017 511.798 44.1456 527.257C74.5964 497.951 30.0373 459.956 49.0443 467.322C87.6425 474.955 83.7292 402.337 105.618 445.281C160.003 482.061 220.686 451.826 279.942 474.433C321.191 461.508 276.841 433.944 256.466 455.092C230.505 452.923 307.126 467.496 252.525 465.552C211.302 466.813 251.5 409.258 223.801 435.869C238.292 464.654 195.571 464.285 215.639 449.738C195.621 463.645 208.058 412.575 187.869 440.477C205.594 464.914 108.79 442.485 160.447 437.628C138.484 424.313 108.534 430.037 141.36 421.087C67.7544 438.344 83.5073 344.689 149.21 372.017C186.389 382.117 225.627 369.96 165.06 360.48C202.132 353.234 289.904 386.301 292.212 379.309C267.175 354.78 152.852 350.849 245.911 336.814C269.637 322.003 181.638 321.468 190.546 349.204C147.451 331.443 103.208 346.3 58.8309 330.971C92.5966 312.563 -8.43357 337.929 57.2889 336.15C78.0468 351.617 -35.8321 330.713 18.1973 302.939C45.4782 322.166 -30.2485 259.474 29.3811 277.566C67.0523 268.395 132.629 314.987 140.319 300.206C127.407 288.286 147.351 239.912 128.323 287.166C94.3626 291.267 -12.6591 255.061 50.2081 250.825C67.6442 263.958 115.716 277.32 104.412 254.6C63.4371 264.98 102.779 237.078 54.723 241.332C6.7113 220.214 155.094 253.568 162.327 253.116C166.765 253.72 197.527 268.925 197.415 256.756C220.981 207.268 230.101 252.406 258.33 271.37C252.092 307.206 282.543 314.287 313.682 307.303C274.354 332.273 410.376 287.89 401.548 314.671C383.059 340.414 363.64 332.264 395.122 342.259C433.127 326.034 523.091 360.696 538.043 364.578C503.807 341.541 470.194 341.795 520.624 336.808C525.643 313.193 434.622 329.858 420.302 305.671C444.7 267.052 525.932 339.145 528.369 305.375C560.486 314.085 572.086 285.517 572.207 270.928C598.118 286.939 563.262 249.745 532.013 254.7C543.258 209.572 579.526 255.903 613.239 236.485C651.738 233.883 681.809 258.194 681.44 234.881C622.62 226.36 759.566 212.717 694.179 242.418C743.993 218.736 678.973 293.546 733.246 270.809C730.883 261.299 816.452 284.965 773.323 247.731C721.389 231.524 816.493 262.102 804.321 244.719C842.504 243.374 881.622 224.159 908.335 232.439C905.437 215.266 989.115 215.009 923.889 223.406C964.017 233.463 959.511 233.629 983.479 215.96C971.606 193.749 956.463 203.493 976.856 215.275C955.592 205.965 935.27 202.465 933.74 206.764C979.719 166.312 1021.03 242.685 1056.72 232.775C1063.79 215.704 1149.54 219.916 1129.19 220.641C1151.32 222.036 1210.71 238.399 1152.95 239.426C1081.27 236.601 1188.44 261.372 1196.47 230.491C1238.81 249.224 1296.35 227.553 1329.24 224.068C1359.63 221.621 1378.49 219.68 1383.86 241.786C1419.2 239.489 1430.06 262.225 1425.39 235.605C1435.54 223.258 1445.58 225.649 1464.01 230.097C1470.93 209.374 1518.45 244.903 1503.06 221.978C1528.76 228.584 1521.28 184.278 1546.46 213.05C1481.08 213.713 1616.33 220.861 1593.7 235.039C1550.76 239.565 1522.97 238.985 1532.92 232.297C1452.43 239.437 1560.02 255.811 1585.1 242.342C1545.45 267.385 1602.15 264.088 1593.26 245.179C1582.99 235.708 1639.98 245.006 1614.26 232.695C1647.18 224.974 1709.82 255.723 1697.76 224.105C1730.47 221.556 1728.19 221.468 1757.54 201.186C1791.11 198.607 1821.48 226.136 1828.79 211.997C1867.14 227.106 1817.6 214.672 1850.1 233.311C1840.09 261.676 1876.28 277.534 1871.27 234.87C1867.67 226.154 1842.99 189.281 1877.36 225.105C1916.24 283.316 1849.72 294.498 1795.63 287.163C1689.57 291.125 1582.41 285.596 1476.56 295.891C1341.29 298.841 1206.24 305.836 1071.97 321.284C996.633 322.462 922.499 334.486 850.127 352.023C802.928 368.538 771.078 384.759 747.168 399.538C734.312 401.043 737.296 418.237 719.985 417.843C699.196 409.827 760.172 440.765 711.953 426.263C652.961 416.725 568.204 392.992 531.151 443.079C536.192 457.4 503.941 471.9 505.597 475.083C500.1 513.055 537.351 530.183 548.824 554.014C503.768 553.559 582.651 571.596 558.436 547.922C587.858 526.605 630.956 493.814 676.047 502.521C719.586 508.526 833.039 516.956 757.316 568.91C727.048 591.038 682.551 581.997 726.543 616.721C736.184 640.607 729.558 695.103 745.802 646.293C753.006 644.804 767.744 710.285 725.72 696.896C787.891 712.098 852.443 756.386 910.622 761.879C879.415 749.478 931.582 739.203 919.23 724.953C961.087 720.962 932.755 786.548 959.214 730.341C951.851 704.746 972.613 696.022 976.19 666.36C942.21 659.88 908.091 635.261 905.851 646.679C896.23 629.853 798.347 628.416 792.325 608.831C818.246 572.964 742.446 599.807 773.943 556.724C791.387 518.474 841.127 559.46 839.261 529.917C831.8 510.699 975.539 562.804 890.039 539.272C828.827 535.213 911.731 586.277 934.382 591.604C946.33 630.138 927.759 675.868 986.828 644.007C1054.57 651.636 1117.35 689.023 1184.79 686.886C1177.18 708.573 1281.52 664.986 1220.55 688.958C1162.92 716.121 1341.98 742.236 1247.99 706.044C1291.44 699.562 1320.49 732.383 1318.44 767.528C1364.27 741.004 1438.81 752.19 1463.27 799.082C1470.06 816.239 1509.23 802.269 1501.31 779.516C1532.42 766.306 1457.02 773.294 1506.48 765.24C1539.71 749.67 1585.41 755.827 1620.8 750.705C1583.78 740.085 1527.16 738.073 1494.75 705.242C1422.63 685.537 1584.24 716.464 1582.04 718.555C1625.28 732.423 1677.72 730.23 1732.29 741.097C1796.18 732.983 1721.75 842.503 1794.56 813.253C1802.42 775.231 1819.44 803.756 1859.04 788.628C1898.58 788.826 1886.88 866.889 1848.58 828.478C1826.69 854.278 1790.68 804.65 1757.14 822.564C1722.6 807.95 1700.3 829.755 1720.62 845.213C1740.7 860.079 1831.36 860.738 1876.48 874.595C1879.37 901.934 1771.46 883.593 1733.71 891.062C1435.77 895.173 1137.24 899.087 839.586 894.33C821.133 891.815 828.647 888.317 808.706 885.766C817.424 878.387 728.111 860.168 759.705 873.848C784.734 887.115 781.42 883.373 803.382 887.18C827.712 902.415 735.793 893.963 726.395 872.414C721.469 865.301 677.829 858.855 670.85 850.544C740.423 858.302 656.897 837.035 630.546 834.188C596.756 835.794 591.771 810.171 557.236 818.389C584.311 837.772 647.082 848.466 664.479 849.772C613.506 851.977 641.106 858.264 655.636 866.947C668.512 866.273 677.928 874.925 697.155 880.785C750.276 891.887 694.29 897.795 657.382 893.995C633.975 893.747 621.884 890.208 604.955 892.984ZM1554.21 870.683C1626.54 839.103 1545.24 731.74 1505.3 814.876C1481.88 839.901 1521.77 883.604 1554.21 870.683ZM1006.23 834.286C1040.35 813.613 957.993 828.166 984.916 784.266C979.833 759.329 1029.68 728.629 978.986 759.761C985.525 724.832 1053.6 758.854 1000.21 738.191C947.701 760.023 933.574 836.09 995.262 837.809L1006.23 834.286ZM927.894 794.381C900.229 781.332 969.293 790.821 909.589 776.018C880.681 751.837 801.625 746.512 870.564 779.813C876.966 780.261 934.81 809.861 927.894 794.381ZM630.675 725.22C655.079 700.781 646.698 686.445 626.803 682.731C609.497 658.534 625.17 652.76 630.578 643.112C594.122 653.944 577.51 731.463 630.675 725.22ZM332.301 552.429C330.798 533.932 296.365 503.376 301.119 534.481C260.58 536.544 197.262 514.52 183.43 512.812C181.775 534.988 224.209 522.496 183.449 531.656C231.137 535.346 294.325 535.123 308.321 551.138C315.121 546.066 326.313 559.21 332.301 552.429ZM1856.05 866.956C1814.75 856.703 1724.22 854.411 1726.42 828.03C1765.88 823.694 1850.88 834.455 1883.51 854.404C1874.62 858.926 1868.81 873.764 1856.05 866.956ZM1564.86 699.809C1538.7 684.681 1455.2 707.549 1453.33 657.271C1445.34 588.059 1593.13 620.519 1620.95 659.946C1630.85 678.744 1627.45 708.079 1618.65 672.659C1635.1 726.943 1610.79 682.439 1597.32 652.826C1612.3 695.405 1578.1 703.119 1578.56 684.651C1591.05 662.249 1574.57 668.993 1580.57 646.464C1573.43 627.276 1532.88 657.486 1566.44 652.866C1577.18 654.909 1517.42 668.704 1564.24 684.19C1554.58 689.517 1587.51 701.576 1564.86 699.809ZM1387.64 681.771C1340.75 675.592 1259.12 662.526 1313.23 610.82C1284.89 643.787 1390.23 654.961 1335.25 623.466C1299.18 565.285 1376.07 664.882 1406.02 646.505C1456.93 623.683 1414.27 694.977 1387.64 681.771ZM1217.94 668.292C1180.82 664.907 1146.17 637.706 1119.65 652.508C1079.51 645.488 1152.36 670.877 1094.85 656.848C1051.33 638.846 990.671 655.952 961.892 630.259C951.335 596.884 934.949 553.365 961.668 531.334C970.067 534.722 1028.4 529.486 1058.48 540.747C1090.35 553.463 1152.37 547.251 1184.26 586.827C1189.82 622.217 1187.02 656.625 1231.64 671.235L1217.94 668.292ZM1161.21 643.107C1181.81 592.94 1100.29 538.415 1100.85 609.839C1115.45 629.074 1132.37 646.028 1161.21 643.107ZM765.501 512.925C738.423 508.463 698.369 500.072 718.963 488.093C683.972 478.557 605.732 519.243 618.041 456.621C649.881 436.595 714.04 459.866 726.667 463.958C781.375 445.571 734.51 536.176 766.563 495.636C765.345 435.491 791.352 530.887 776.597 484.902C768.045 490.002 780.786 517.362 765.501 512.925ZM586.086 493.686C512.066 489.979 594.376 385.121 601.133 466.526C601.14 474.625 601.082 496.047 586.086 493.686ZM32.7363 412.523C15.3758 388.427 34.2272 390.583 11.9453 400.672C6.57365 388.298 -0.00711425 341.241 18.1928 339.577C49.8614 349.438 55.1401 347.597 35.2538 363.373C95.2574 343.875 82.2013 430.278 32.7363 412.523ZM408.937 312.276C432.63 275.434 312.075 316.931 389.465 297.279C386.264 286.856 308.2 290.672 326.026 282.889C289.326 291.157 261.645 255.323 303.601 253.739C286.035 212.565 339.908 273.513 351.94 240.408C368.979 235.745 410.935 225.878 365.247 243.468C413.357 246.345 424.358 245.526 447.712 243.125C464.856 249.986 419.314 215.932 450.671 219.897C460.135 208.573 516.695 295.941 445.688 279.306C397.834 266.72 427.978 300.626 408.937 312.276ZM1296.12 191.58C1308.21 178.772 1364.06 186.821 1304.3 181.952C1270.89 166.127 1379.77 168.375 1306.36 166.89C1283.92 146.306 1391.97 150.531 1349.35 190.519C1331.72 190.52 1313.47 191.889 1296.12 191.58ZM390.966 191.246C341.552 184.445 291.366 184.026 242.294 179.642C199.74 186.451 162.336 164.448 138.371 177.094C81.2596 176.882 138.283 97.5454 151.668 152.764C165.783 117.319 191.298 163.293 211.617 138.399C227.281 174.214 250.424 140.402 271.123 158.668C302.253 125.483 267.762 101.707 322.212 127.22C356.632 112.142 287.672 129.543 317.089 97.05C288.617 124.209 269.471 82.3435 318.741 93.3093C381.306 99.9099 388.271 96.9841 445.451 99.2338C446.954 94.4178 505.404 99.7863 458.465 111.882C427.452 110.833 335.687 106.912 343.198 112.678C360.98 118.425 461.605 105.602 426.498 129.793C393.92 124.914 296.892 130.44 383.637 132.561C386.008 139.526 440.165 133.485 450.557 133.874C496.848 138.352 510.495 129.608 456.665 130.219C415.482 106.362 511.745 125.477 487.471 105.964C513.541 68.7042 409.406 110.411 386.266 89.9167C351.061 103.555 269.663 79.8086 281.479 76.731C267.233 96.5214 202.625 83.1165 183.019 84.2619C163.323 57.48 284.129 74.598 214.039 64.8398C201.3 46.163 263.655 31.7283 219.75 31.0619C197.928 33.5035 176.092 67.3515 133.345 48.9701C87.7418 61.494 76.9383 23.0876 72.5947 -0.125448C97.3017 -3.94707 114.451 10.2343 135.625 10.3463C86.2359 -3.68045 164.426 -3.34639 156.15 9.6445C177.072 12.8252 173.547 -17.3268 181.044 23.8356C176.838 -15.242 255.944 -3.20463 271.097 15.7615C286.698 41.7676 240.997 20.0534 279.602 46.4931C284.109 78.2476 284.986 0.352048 299.878 28.8301C338.259 23.8356 338.069 58.0972 335.258 59.4895C385.099 49.7408 317.152 84.354 340.36 75.9383C390.106 94.8475 332.684 30.94 386.051 64.9425C370.577 47.3105 366.547 24.7777 331.843 36.943C300.259 13.7732 303.875 22.3436 281.147 0.974547C312.636 -5.21172 348.085 5.20647 347.484 22.7052C357.951 6.51322 377.172 -7.57552 394.12 10.399C388.279 -9.60321 434.817 6.465 456.006 1.21918C488.994 -9.33812 425.533 28.7957 463.348 40.4706C421.118 65.7946 516.167 56.894 471.367 51.2485C491.125 37.4336 447.115 22.0972 477.178 9.31886C495.979 -24.7862 539.382 27.7296 562.199 9.2151C527.189 -6.91418 626.303 4.2839 650.451 -0.637956C696.492 7.04511 697.831 -0.0467664 716.35 3.73674C740.279 2.34996 783.265 -3.88704 807.635 4.03045C836.749 5.08234 847.534 -1.56917 864.751 4.61447C885.884 41.6298 881.722 23.2884 889.438 7.22001C913.17 1.86792 930.739 -0.444938 934.394 9.71913C958.801 -4.65246 977.703 2.9944 997.465 4.51036C1004.15 -6.20706 1031.46 12.5551 1019.55 -0.133641C1047.08 15.3175 1048.5 -3.94212 1096.47 -0.397032C1126.63 -0.917917 1191.86 -0.285126 1197.01 4.30958C1218.69 -3.01615 1236.87 2.65256 1260.38 0.685222C1274.7 1.85398 1279.33 7.73253 1281.51 22.4888C1303.91 16.5588 1280.03 -4.27217 1311.87 1.69766C1276.68 36.5319 1347.84 -19.3858 1315.84 22.0027C1287.89 32.234 1296.02 31.8441 1273.56 35.6546C1266.68 68.815 1311.9 62.5268 1308.63 35.2961C1305.08 25.8022 1341.81 4.97412 1334.68 27.2318C1361.72 36.1376 1365.49 9.48059 1381.84 0.138442C1381.91 27.5427 1363.48 43.2626 1392.6 62.6123C1413.29 52.9065 1390.2 33.8355 1390.87 18.2631C1364.39 -10.5491 1433.83 11.1726 1406.99 0.603533C1443.74 -9.89466 1456.16 22.6299 1468.72 13.3416C1455.15 34.894 1490.78 30.3969 1485.83 27.3053C1481.45 -2.52708 1477.28 13.811 1462.55 0.325143C1516.05 -5.90455 1491.72 36.9433 1515.86 49.5465C1520.12 92.5651 1483.2 12.6464 1488.47 57.1514C1474.27 98.3856 1502.59 68.2958 1500.37 58.5238C1511.45 81.411 1474.02 110.172 1489.71 92.3852C1450.67 67.6843 1480.03 131.18 1489.5 107.847C1515.33 108.434 1510.25 123.832 1511.34 91.1214C1517.02 85.267 1509.9 74.4153 1518.62 76.0676C1518.58 56.0371 1533.63 111.582 1535.73 82.3833C1539.53 71.4123 1515.87 69.9513 1528.79 46.3371C1497.17 26.4378 1503.55 30.7719 1541.89 33.8999C1557.83 46.6929 1544.23 77.3122 1585.35 57.543C1574.71 43.4502 1559.7 47.1626 1558.77 23.176C1592.84 44.6645 1580.62 9.45695 1605.73 14.2153C1580.84 51.7821 1609.81 17.5289 1625.2 21.355C1623.42 16.8754 1630.77 -9.45358 1645.95 3.88376C1668.29 -2.09375 1681.11 3.96709 1709.22 0.83407C1729.61 27.7688 1766.12 -13.4687 1794.99 9.14617C1790.77 -8.90623 1826.77 22.8802 1846.24 15.1401C1849.66 48.6277 1844.74 105.014 1817.85 85.1177C1788.97 108.672 1818.82 89.7552 1825.69 97.9619C1839.41 103.546 1835.9 114.909 1841.89 135.954C1851.11 88.7396 1905.4 126.649 1875.5 148.364C1907.62 160.802 1814.18 157.755 1882.58 161.12C1869.84 180.76 1809.61 167.205 1835.7 142.648C1835.31 127.266 1795.23 132.861 1819.58 148.059C1840.11 157.352 1785.03 157.873 1826.11 165.636C1797.13 172.113 1750.86 162.504 1782.54 180.6C1731.7 189.441 1745.67 148.292 1787.28 162.636C1793.1 146.021 1726.24 148.722 1744.73 173.25C1732.11 191.62 1700.22 168.101 1728.4 169.417C1677.49 165.697 1743.16 151.016 1735.77 134.897C1726.93 130.149 1715.36 144.187 1704.36 127.491C1697.2 160.224 1684.55 116.804 1675.21 148.748C1657.76 139.613 1655.09 116.734 1665.7 115.892C1626.4 112.065 1691.45 89.2485 1678.84 104.86C1679.86 112.591 1702.88 63.1106 1705.73 100.889C1716.11 93.1209 1753.01 92.855 1730.18 77.883C1696.04 110.803 1705.75 51.6845 1696.37 69.4566C1677 61.1237 1681.29 41.3605 1657.01 44.7683C1666.49 74.6019 1620.41 21.1212 1663.8 33.6601C1695.93 31.3905 1678.27 -10.7138 1663.15 26.7913C1662.89 3.39474 1638.15 18.5256 1633.95 45.4058C1619.68 79.2529 1651.17 51.1709 1668.82 61.3254C1650.51 75.7632 1702.02 75.0852 1677.69 84.0537C1674.35 87.8586 1651.71 75.3738 1639.26 75.488C1661.57 72.0332 1599.51 122.918 1634.99 107.155C1642.46 91.3473 1632.93 153.479 1644.24 136.637C1677.28 120.058 1630.14 160.154 1657.9 163.267C1668.95 187.842 1601.3 188.778 1619.5 157.322C1622.72 119.114 1597.84 127.268 1614.47 156.71C1612.29 174.522 1596.68 136.465 1566.83 154.548C1538.08 160.482 1465.24 148.326 1529.1 142.793C1507.88 113.627 1520.18 152.315 1498.7 138.253C1444.14 143.592 1529.09 146.109 1482.72 155.189C1461.68 150.252 1471.18 117.067 1465.67 153.69C1408.03 158.79 1364.66 146.381 1315.86 153.432C1296.7 153.752 1292.11 117.365 1290.82 128.4C1306.93 173.18 1210.91 143.139 1179.94 151.871C1136.04 137.992 1242.66 136.999 1173.06 137.093C1163.02 129.018 1123.5 144.016 1164.79 140.353C1171.98 166.317 1088.93 145.032 1157.1 154.995C1178.57 185.266 1068.69 162.294 1099.83 131.906C1112.91 99.2163 1020.16 130.852 1045.1 122.833C1083.61 125.493 1108.48 147.422 1092.65 189.863C1085.34 162.428 1096.46 154.458 1054.49 166.529C994.48 170.023 1039.28 152.165 1065.81 149.564C1025.65 154.173 1019.97 137.571 1050.69 139.474C1067.92 138.048 999.836 125.122 1029.76 105.597C1029.32 89.6174 1002.59 38.0733 1033.59 43.9845C1014.64 7.65647 1012.37 18.8921 987.455 37.0344C970.327 24.2217 980.704 18.608 987.465 11.8575C951.205 10.7277 971.313 41.1761 970.756 45.5372C995.878 35.2051 1015.96 51.7933 1022.65 81.6453C1030.59 113.482 1017.98 110.908 1012.63 129.578C1042.48 130.49 900.519 147.153 905.214 123.475C932.223 120.102 1045.62 122.776 962.177 118.982C901.502 112.695 830.039 127.745 775.069 111.043C728.223 110.472 809.726 144.115 744.631 133.026C707.431 144.323 653.136 116.352 718.35 119.107C814.714 123.851 608.739 99.5692 666.558 126.18C711.589 125.534 611.098 135.368 588.467 131.468C573.636 103.016 665.817 120.743 588.029 113.777C531.914 104.072 617.568 132.196 556.438 132.509C626.202 151.197 503.249 152.018 478.048 148.28C422.884 150.278 460.102 149.875 481.475 155.665C472.343 181.463 416.405 170.588 441.981 145.441C409.745 148.21 292.866 149.685 384.679 152.838C373.292 164.407 458.757 140.798 415.623 167.11C361.615 156.322 474.259 191.983 394.314 190.51L390.966 191.246ZM1358.58 135.755C1353.82 97.2141 1358.94 82.6413 1397.07 95.8811C1384.29 97.419 1378.12 67.5197 1392.76 83.5666C1389.72 70.691 1375.09 41.4586 1354.77 45.965C1337.27 60.7889 1324.85 60.4187 1337.32 40.931C1329.79 26.5622 1313.33 72.1759 1291.93 68.2293C1280.28 91.0383 1317.78 84.0813 1341.17 82.0309C1323.15 83.7599 1305.47 63.4704 1342.1 72.3859C1368.36 95.3145 1340.35 117.973 1354.45 139.707C1351.96 146.781 1368.58 144.456 1358.58 135.755ZM937.392 186.606C919.918 187.723 814.824 179.666 893.106 170.279C920.077 176.214 952.792 176.777 933.635 161.17C912.562 184.246 816.138 151.162 894.508 155.908C902.037 161.128 1014.78 138.72 1016.96 165.561C969.563 178.354 928.918 138.991 937.392 186.606ZM59.4395 173.947C23.5106 191.991 -17.5958 148.656 14.3916 137.544C32.5086 163.607 44.9351 104.907 70.2163 146.717C112.047 105.034 126.726 209.851 59.4395 173.947ZM1519.46 168.922C1487.17 171.081 1361.76 162.431 1455.98 156.227C1478.28 159.526 1610.54 157.797 1534.36 166.063C1530.11 168.998 1524.56 169.277 1519.46 168.922ZM945.443 149.439C920.415 151.8 819.139 147.064 895.46 138.27C924.441 140.826 1023.94 127.209 1012.85 150.63C990.422 150.124 967.668 152.686 945.443 149.439ZM877.275 133.839C863.075 121.219 775.956 153.018 781.919 119.857C796.585 118.714 949.947 117.22 877.275 133.839ZM1879.29 116.719C1871.05 85.5644 1835.64 134.089 1852.48 87.9138C1851.68 62.0236 1850.49 -38.9406 1883.34 15.9004C1883.45 45.8155 1887.99 103.663 1879.29 116.719Z" fill="#3E3743"/>
<path d="M1040.59 893.144C1016.41 882.358 967.854 869.303 934.852 858.706C911.552 842.134 881.588 836.045 851.579 825.097C800.133 810.349 840.266 814.669 831.666 807.181C832.183 791.537 759.847 771.12 780.004 791.145C804.8 795.44 826.789 821.274 787.857 801.732C748.969 782.172 710.682 768.191 664.243 766.051C596.02 793.019 577.021 673.645 591.425 686.384C580.637 762.536 659.537 735.372 649.998 674.471C628.347 665.247 613.508 633.27 649.357 655.941C620.626 608.661 577.546 704.494 597.505 650.598C639.802 634.648 511.756 630.149 578.236 605.132C601.039 594.246 619.154 555.774 625.005 539.535C675.255 566.062 639.244 520.2 612.755 514.918C639.02 479.824 747.55 533.728 657.816 536.283C673.725 570.535 681.27 524.903 693.279 556.578C696.815 602.6 693.938 523.07 706.945 516.378C748.37 525.361 815.57 520.059 756.074 565.551C741.028 597.719 688.088 566.005 695.438 593.733C771.82 613.303 686.936 711.981 759.522 709.947C824.031 728.979 692.203 716.892 764.359 740.314C793.777 735.964 833.608 786.706 843.223 743.504C892.306 761.755 945.443 782.46 954.223 747.909C962.947 719.106 1043.1 658.352 988.742 660.787C940.809 656.702 1026.64 634.399 1046.49 659.091C1083.02 667.917 1176.6 687.027 1137.86 713.195C1127.49 703.528 1099.37 706.18 1091.44 703.097C1070.34 717.109 1006.21 684.581 1069.48 710.327C1102.32 711.216 1140.39 761.414 1136.03 739.302C1152.81 733.492 1157.94 692.934 1169.73 700.631C1173.83 725.445 1232.18 660.547 1201.92 703.363C1238.14 734.294 1301.66 718.225 1285.08 751.983C1304.39 789.89 1303.28 695.982 1311.79 743.129C1305.3 792.681 1380.17 743.766 1399.75 759.934C1445.47 750.199 1465.87 845.655 1498.48 801.618C1522.39 720.671 1613.8 785.822 1586.1 846.348C1590.26 897.722 1630.86 782.855 1590.29 770.632C1526 725.927 1630.6 786.042 1622.96 809.901C1631.47 777.414 1580.87 748.158 1641.94 771.877C1634.3 745.798 1630.9 749.116 1602.31 741.137C1565.29 749.527 1607.16 718.506 1609.43 725.134C1621.82 741.252 1665.2 719.189 1647.21 746.578C1664.09 730.074 1752.32 739.084 1750.5 749.555C1758.21 787.648 1777.37 833.035 1720.9 817.334C1695.47 827.578 1702.57 823.682 1719.89 842.992C1722.77 869.752 1830.48 856.386 1869.2 875.084C1913.35 904.188 1797.21 890.441 1776.28 894.211C1591.42 894.314 1406.53 895.166 1221.69 893.313C1178.54 892.441 1128.18 891.775 1084.32 893.382C1058.58 880.482 1054.12 891.249 1040.59 893.144ZM1546.7 880.496C1620.11 862.045 1574.04 736.47 1511.41 799.862C1477.06 796.032 1503.42 895.229 1546.7 880.496ZM993.24 848.389C949.276 830.405 1043.54 844.296 1032.88 799.665C1062.22 731.99 970.666 734.609 961.987 755.674C928.175 775.888 948.116 858.761 993.24 848.389ZM1037.73 822.02C1073.77 810.671 1058.71 707.973 1014.34 711.677C1017.28 723.969 1052.27 793.732 1035.43 823.92L1037.73 822.02ZM1187.87 813.357C1165.37 790.598 1172.3 797.246 1199.33 800.642C1188.23 766.902 1211.9 817.685 1220.87 789.847C1287.59 797.237 1355.96 805.253 1422.97 806.433C1398.48 793.587 1399.28 764.425 1378.85 795.597C1338.84 805.827 1376.04 735.304 1334.98 775.353C1354.55 799.964 1233.55 803.256 1264.32 765.598C1255.9 736.56 1223.13 819.43 1206.72 767.528C1191.38 754.927 1182.66 799.139 1164.56 775.998C1167.87 791.594 1139 840.91 1187.87 813.357ZM942.898 799.826C913.502 788.971 967.259 785.747 919.563 778.134C899.628 762.645 803.873 737.168 858.313 775.889C884.658 785.366 913.808 804.458 942.898 799.826ZM661.177 708.227C696.44 676.793 633.501 612.145 693.846 620.913C712.036 611.188 605.831 602.771 616.014 628.344C667.255 609.085 645.889 711.577 661.177 708.227ZM1847.02 863.687C1805.78 853.337 1729.18 854.75 1731.89 824.88C1777.99 835.373 1849.19 835.55 1881.8 853.6C1871.3 859.685 1862.67 874.021 1847.02 863.687ZM1871.97 832.614C1860.96 813.562 1827.13 810.476 1860.32 829.391C1848.27 830.132 1814.98 839.585 1831 816.119C1798.12 841.746 1787.44 807.137 1807.22 814.659C1803.75 799.165 1904.88 783.776 1846.67 798.29C1780.19 781.52 1912.55 832.87 1871.97 832.614ZM1553.59 736.098C1539.03 730.909 1468.37 690.365 1515.09 703.351C1542.8 701.696 1632.49 739.308 1553.59 736.098ZM1563.61 697.572C1539.15 674.49 1498.38 707.727 1480.38 676.596C1419.45 639.869 1480.16 599.104 1534.51 623.83C1558.77 614.713 1655.73 668.594 1594.61 651.211C1595.83 713.371 1583.46 591.626 1548.7 650.142C1539.8 690.941 1535.64 674.143 1563.61 697.572ZM1515.39 683.029C1537.86 691.146 1546.99 596.131 1506.41 645.942C1490.71 667.052 1530.36 669.464 1505.54 684.067L1511.33 686.237L1515.39 683.029ZM1387.01 680.559C1357.87 682.114 1255.12 642.655 1334.72 657.719C1380.9 659.77 1248.9 631.679 1331.11 641.357C1398.98 666.039 1282.39 573.938 1340.67 614.928C1354.8 671.838 1465.31 617.8 1407.89 678.21C1403.93 685.639 1392.75 680.872 1387.01 680.559ZM924.242 644.457C872.81 636.158 889.783 618.677 827.722 617.07C778.148 612.044 808.246 580.471 813.55 586.346C830.155 558.252 820.941 619.667 832.206 571.166C818.208 538.036 857.814 525.754 835.595 570.841C841.63 604.918 898.869 591.335 861.833 577.148C872.213 559.002 831.689 505.783 870.88 554.027C877.976 580.66 958.606 595.183 892.538 589.432C913.219 600.274 956.271 605.255 939.588 642.943C913.77 634.012 905.981 634.549 924.242 644.457ZM448.319 628.606C342.388 620.315 238.909 597.692 132.489 595.293C82.5381 604.622 -18.5243 570.636 45.5727 553.127C53.5017 521.765 89.0199 561.189 93.708 545.996C129.097 542.902 108.922 451.801 123.205 517.476C170.658 486.666 153.085 559.539 195.118 541.537C225.725 569.803 251.896 540.206 202.336 538.178C217.887 527.846 328.29 551.804 249.472 546.49C289.033 576.752 302.442 535.388 332.366 562.438C293.081 566.7 372.26 566.434 333.994 552.018C353.192 504.13 356.661 594.602 378.356 569.941C391.684 547.45 413.457 586.891 420.835 554.651C416.851 526.079 439.959 592.52 444.104 550.967C459.16 522.564 529.923 533.01 523.164 570.306C570.135 581.416 500.332 539.862 553.523 568.06C564.648 617.195 529.481 581.349 491.423 597.132C461.693 599.624 398.862 617.635 463.754 614.163C499.526 612.665 579.685 633.567 497.18 630.273C480.888 630.02 464.556 629.899 448.319 628.606ZM1104.9 616.843C1083.33 600.681 1061.03 527.058 1120.03 560.86C1171.23 554.537 1182.84 633.565 1149.51 579.59C1101.9 549.428 1087.25 611.749 1104.9 616.843ZM1005.98 610.947C979.276 602.944 1003.47 574.199 957.011 576.986C944.777 526.909 1115.5 539.922 1065.43 583.417C1056.19 621.512 1020.92 599.627 1005.1 598.962C1016.76 596.898 1011.7 615.347 1005.98 610.947ZM325.677 536.28C313.627 496.635 297.624 534.161 295.998 529.776C281.328 540.5 290.553 493.93 277.751 530.895C240.126 537.36 197.054 503.976 182.138 511.262C171.557 535.375 167.804 460.802 180.278 501.466C170.065 449.015 274.623 506.623 269.482 479.028C242.438 472.732 131.474 465.474 217.449 466.319C266.209 491.043 306.632 474.548 308.193 442.522C321.621 426.415 290.252 513.77 335.388 522.616C341.755 527.264 331.971 542.992 325.677 536.28ZM440.178 515.198C475.106 458.766 327.25 503.773 323.934 465.8C313.724 446.091 357.989 458.175 377.161 439.054C390.925 409.056 392.536 420.445 391.672 428.574C377.926 441.546 462.086 468.494 493.369 457.868C468.984 446.838 444.66 449.815 438.402 448.116C435.731 446.231 398.642 447.757 422.343 430.005C457.343 452.032 439.736 421.798 484.755 439.363C530.286 433.439 533.89 482.366 502.51 456.041C500.365 472.546 511.364 485.3 459.547 479.532C453.477 492.637 459.752 500.842 440.178 515.198ZM737.949 505.334C728.418 480.725 678.575 472.47 658.908 492.719C609.46 506.132 604.646 449.013 657.105 474.999C722.399 481.806 596.964 444.127 678.139 457.075C716.237 457.868 779.153 473.594 742.118 497.336C752.445 498.266 747.226 515.805 737.949 505.334ZM135.838 476.542C92.8274 439.203 128.372 482.079 79.455 467.636C80.0394 412.176 116.464 469.34 156.503 466.289C185.09 469.832 139.139 483.043 135.838 476.542ZM530.525 441.008C544.164 407.508 494.422 467.752 515.137 419.545C539.789 409.753 462.595 401.225 506.857 399.833C474.987 387.476 513.662 377.557 472.823 378.156C485.683 332.376 545.891 396.665 525.033 405.798C553.274 356.263 435.942 343.022 402.742 358.007C420.323 367.413 504.813 382.244 436.43 380.962C368.73 372.288 430.326 385.308 458.964 389.442C423.894 391.11 399.662 393.539 369.933 371.095C369.11 396.677 368.699 318.89 400.023 346.576C437.331 317.767 529.703 375.643 541.678 366.68C501.298 324.859 592.389 377.947 563.304 327.633C563.822 313.144 612.922 363.72 586.061 318.775C629.133 287.726 603.187 377.755 658.14 359.499C710.437 373.043 540.497 362.657 613.749 376.364C582.622 369.168 519.664 385.943 583.28 395.721C619.908 398.36 669.814 413.647 602.368 411.208C568.261 402.884 547.92 427.842 530.525 441.008ZM264.116 432.526C239.758 433.573 152.021 411.199 234.049 419.302C289.893 432.779 233.495 379.829 195.328 393.013C184.53 417.38 166.182 405.477 122.777 416.758C64.354 428.106 116.045 337.391 115.117 389.001C117.936 349.122 217.245 388.274 140.069 392.695C119.342 403.307 195.742 402.925 186.291 378.249C231.668 383.107 306.181 383.778 268.872 436.172L264.116 432.526ZM35.0172 411.356C-5.73327 374.867 86.3303 337.339 72.3303 390.89C51.2086 388.369 89.2308 410.02 53.1308 406.129C59.5184 340.119 59.4379 408.705 35.0172 411.356ZM185.309 347.456C145.661 353.072 157.281 282.222 181.686 309.492C202.088 281.419 193.807 334.749 201.719 292.947C201.347 278.993 212.377 266.105 228.88 263.54C268.288 249.64 238.332 322.215 290.031 312.999C396.746 327.956 128.393 310.843 232.901 324.281C236.397 326.632 181.128 318.545 190.756 348.507L185.309 347.456ZM42.466 339.769C3.52106 334.218 -0.310162 324.806 16.22 307.175C57.9507 321.622 68.5256 301.293 103.901 304.93C89.3286 281.202 56.7626 297.944 26.377 282.117C-1.50765 296.032 86.0567 293.822 39.4007 304.929C-0.551007 294.451 -5.26448 272.002 53.1775 283.351C91.1265 282.65 174.641 312.124 134.173 338.902C128.805 303.8 124.411 311.2 121.356 333.674C91.6693 318.248 64.8527 320.346 30.3018 328.636C27.2787 337.223 76.7632 342.829 42.466 339.769ZM758.921 323.302C722.436 313.123 604.428 313.914 669.108 282.37C660.645 258.446 608.834 294.098 580.607 267.095C613.524 269.233 538.858 248.908 607.497 258.287C621.517 256.565 573.128 244.063 616.77 245.72C571.898 230.745 705.186 237.193 655.396 264.224C675.857 268.409 695.563 250.783 716.847 275.474C763.897 258.731 767.778 300.238 791.471 274.487C798.816 274.321 775.874 247.575 812.699 257.75C803.204 289.481 862.393 274.694 840.346 256.268C861.524 259.102 886.659 296.861 908.121 275.677C911.648 257.632 914.828 256.566 886.24 272.489C864.474 242.358 924.52 265.299 920.102 246.373C938.961 215.822 895.402 257.425 906.259 238.648C926.11 212.599 966.981 239.944 931.609 251.781C949.106 265.589 978.558 247.943 958.906 278.505C989.794 278.71 968.774 242.484 955.531 246.598C959.424 232.029 992.117 221.246 987.61 203.134C1026.09 204.394 1046.75 279.271 1067.96 256.39C1042.27 249.923 1069.03 207.128 1106.78 226.971C1137.86 211.622 1106.09 254.5 1145.33 247.284C1180.04 245.056 1188.24 268.207 1193.8 264.312C1227.31 250.632 1143.08 248.914 1203.79 246.904C1204.15 209.283 1223.84 294.684 1221.48 256.442C1233.03 242.737 1249.34 256.645 1289.77 252.78C1324.88 261.671 1343.62 257.727 1351.31 225.409C1415.89 225.868 1316.97 240.712 1375.42 240.564C1415.03 242.104 1431.81 257.639 1462.55 255.814C1446.1 244.046 1496.22 197.363 1485 250.856C1503.68 243.8 1580.05 244.194 1572.64 252.913C1563.17 279.082 1603.08 242.095 1616.61 241.398C1641.72 254.056 1609.83 221.058 1659.4 237.073C1712.99 213.018 1642.92 274.972 1684.24 240.663C1685.11 263.291 1707.61 234.834 1722.25 242.511C1714.65 219.873 1774 237.771 1737.01 223.549C1743.87 197.059 1800.87 223.256 1779.04 237.806C1811.56 224.769 1798.37 218.675 1835.01 226.015C1884.11 257.948 1807.7 260.236 1770.1 245.28C1742.79 239.293 1716.69 245.047 1734.88 257.384C1685.49 262.199 1636.89 254.228 1619.37 268.075C1566.27 274.014 1514.25 263.707 1463.55 272.87C1399.86 277.079 1340.05 269.425 1278.11 271.282C1255.83 273.297 1232.78 269.321 1248.58 281.048C1174.5 291.661 1101.04 276.897 1026.57 281.395C988.947 281.378 1065.3 303.515 1007.02 298.662C971.494 301.914 953.823 311.061 912.193 302.059C850.906 284.114 842.344 308.206 852.322 318.339C807.031 315.503 806.719 328.07 758.921 323.302ZM400.726 294.735C366.879 276.609 245.304 293.353 307.345 251.508C333.778 231.609 308.023 277.194 353.33 270.223C401.54 271.228 297.994 232.509 372.547 256.09C365.035 248.935 326.16 237.528 376.589 245.032C413.326 236.298 421.46 248.389 429.454 272.311C467.55 277.775 444.905 240.352 467.715 259.904C500.397 231.64 466.873 305.938 434.757 277.749C412.17 265.333 415.618 297.681 400.726 294.735ZM358.144 187.593C325.559 182.826 260.845 176.828 220.089 178.391C195.999 182.826 132.666 166.002 172.748 156.966C168.882 132.299 176.365 147.066 199.085 163.136C215.611 135.212 225.481 161.159 251.25 171.683C258.4 141.831 291.156 191.741 292.216 165.014C304.683 151.811 328.693 168.424 340.193 154.103C344.879 166.483 402.298 187.573 358.144 187.593ZM1100.21 147.843C1111.19 126.938 1112.93 100.801 1071.09 114.384C1026.72 130.215 1014.53 103.388 1075.31 108.932C1045.6 106.411 995.219 93.0966 1056.41 95.1616C1091.44 109.845 1122.71 105.417 1170.01 114.071C1176.33 108.001 1200.87 136.659 1212.6 122.867C1260.26 145.359 1138.67 135.876 1183.27 125.891C1155.12 114.721 1100.38 126.714 1164.51 128.613C1157.79 138.605 1103.92 135.292 1100.21 147.843ZM1546.07 142.006C1517.35 141.231 1530.79 109.154 1515.66 114.181C1527.06 97.8788 1498.72 90.9656 1521.54 86.2357C1536.9 107.727 1547.17 61.1236 1540.97 99.1C1508.14 128.88 1565.22 98.2741 1552.96 120.539C1577.84 105.188 1562.01 153.719 1546.07 142.006ZM1442.12 128.185C1435.29 122.803 1417.17 122.961 1408.35 122.365C1402.37 107.454 1405.13 109.587 1396.1 89.9765C1371.29 95.116 1433.31 76.5188 1385.02 70.1331C1398.51 54.8619 1400.07 62.2621 1416.89 52.9561C1379.92 47.3587 1463.35 18.7086 1432.25 40.9878C1428.74 28.5391 1412.62 75.4599 1411.52 82.9471C1403.64 100.817 1423.89 124.217 1441.46 114.04C1440.14 107.812 1419.01 102.158 1444.63 100.817C1477.12 69.2118 1438.65 112.366 1470.93 119.803C1463.84 126.332 1453.18 129.751 1442.12 128.185ZM1274.19 108.989C1266.2 78.803 1255.86 106.77 1230.67 89.0741C1187.72 87.712 1239.12 69.5608 1258.84 83.2147C1289.64 123.582 1287.52 70.5523 1268.83 64.9816C1257.79 51.3 1251.79 54.3072 1250.89 45.7973C1276.56 20.5539 1252.79 42.1889 1277.53 59.3174C1293.83 63.7174 1283.9 93.6616 1313.38 89.5054C1351 80.3502 1314.64 110.103 1292.03 101.647C1333.44 99.1794 1350.58 112.669 1298.43 111.528L1282.2 110.775L1274.19 108.989ZM1877.33 104.811C1869.62 93.8372 1875.71 102.481 1854.31 98.3543C1856.6 101.517 1846.47 -43.0417 1883.9 21.5538C1879.47 45.9514 1891.63 88.5888 1877.33 104.811ZM976.659 102.201C934.281 112.43 887.517 84.8414 945.533 93.4966C912.023 108.426 1001.84 86.7748 938.958 86.9164C902.006 76.1971 997.063 75.9904 930.021 75.2032C911.577 60.3583 911.646 27.0655 932.813 59.9831C947.529 73.0795 966.18 36.6424 924.327 42.0594C917.365 15.1886 908.48 14.5408 935.2 11.7004C994.286 0.538891 952.579 15.1498 963.691 33.0419C966.197 35.9183 945.222 98.0446 970.044 57.1023C988.222 29.6714 1023.96 62.4282 1001.88 81.3924C966.687 87.9465 996.031 75.0692 995.846 63.8462C969.543 56.2687 979.401 54.4638 959.684 83.4621C981.187 99.5269 988.985 91.0248 1016.5 93.5798C1029.7 114.626 985.757 97.0908 976.659 102.201ZM794.124 100.525C751.536 91.8271 756.274 96.4218 709.013 97.8414C661.954 96.6952 695.27 75.0281 709.686 87.7336C763.14 93.3706 782.462 85.8488 821.513 87.8578C817.803 92.8773 968.71 85.5685 874.774 100.237C848.081 101.439 820.548 105.012 794.124 100.525ZM1781.78 95.5204C1775.43 88.073 1828.64 75.6135 1788.38 65.4865C1742.13 69.8634 1792.08 43.1379 1749.79 43.7231C1749.02 -0.0606695 1723.81 63.8923 1711.19 25.1731C1672.39 23.2013 1704.4 2.60668 1664.07 12.2593C1646.48 -11.9558 1686.04 10.644 1687.71 1.0004C1728.7 9.12421 1740.62 18.6713 1782.78 0.699156C1799.89 17.6693 1790.29 -11.2189 1812.92 13.3821C1858.88 -5.04324 1855.11 90.7634 1825.12 85.159C1811.02 65.5498 1803.61 105.336 1781.78 95.5204ZM1029.45 90.4134C1053.57 67.4138 1039.96 85.3121 1018.71 57.2008C1024.99 68.9744 1034.77 12.1667 1044.38 53.6631C1076.36 43.1582 996.198 18.0534 1028.82 24.1577C1056.35 21.4681 1022.64 -4.415 1064.43 2.89707C1087 -1.87784 1137.17 -0.555774 1166.13 1.21915C1203.08 -8.05648 1177.7 22.6281 1184.06 43.0035C1215.68 35.9692 1187.75 17.5142 1202.56 15.4334C1211.42 23.4164 1235.26 71.782 1230.29 25.9222C1213.49 9.82268 1244.97 9.36147 1250.12 6.11561C1273.7 3.84821 1284.26 12.1837 1273.47 31.8333C1256.29 2.71794 1231.95 21.6857 1245.44 27.7179C1245.13 34.7578 1225.12 96.4194 1227 62.2717C1212.02 68.6957 1219.47 34.3844 1206.99 73.8059C1190.38 48.6107 1155.07 44.1635 1189.75 68.438C1198.92 80.2649 1129.14 53.1579 1148.42 31.7811C1175.98 0.684148 1105.73 56.179 1130.95 22.027C1127.82 -25.4739 1077.11 52.327 1114.5 55.8322C1127.24 67.9276 1081.42 57.6969 1083.49 80.0035C1095.12 37.3208 1001.44 63.1386 1066.25 72.3207C1070.54 91.5328 1044.16 85.5942 1029.45 90.4134ZM750.431 83.8726C713.613 78.7471 709.235 82.8193 682.79 68.1331C700.799 48.2776 736.913 77.8723 741.074 51.8782C794.484 66.2244 699.818 69.2058 760.934 73.5514C781.269 74.1406 762.181 92.1409 750.431 83.8726ZM813.656 77.56C828.041 43.2847 767.451 81.3481 764.626 59.2146C746.619 24.461 772.826 46.9429 765.658 22.5713C774.558 7.4817 732.6 23.9345 732.618 38.6965C708.049 60.7597 699.292 45.8915 695.069 40.9524C688.271 71.6804 676.889 22.6393 680.018 15.2021C680.38 1.32938 744.466 8.65427 712.408 12.4055C694.97 44.1157 761.989 -23.0284 746.896 9.9942C763.721 3.3351 792.138 19.9009 788.414 27.139C797.672 47.3267 746.476 60.8633 784.978 56.9422C754.782 57.7196 842.901 51.6507 838.353 53.9105C837.177 45.5732 833.096 42.4008 860.988 33.7663C907.851 50.2304 872.57 -13.8005 912.561 18.2528C891.934 21.2276 891.777 32.3959 901.579 41.9692C877.668 47.1212 903.078 57.9232 873.518 52.8048C884.209 6.95364 851.755 101.382 840.602 60.5048C842.164 75.1802 818.694 61.997 813.656 77.56ZM489.58 76.8522C460.924 66.1826 393.138 81.4779 394.453 62.69C402.374 67.9186 465.592 67.5235 475.36 57.3184C501.539 54.799 460.163 43.3713 480.751 24.9387C507.976 17.3029 511.725 58.4747 534.736 46.524C530.702 45.5806 505.758 22.7248 523.915 17.5034C530.887 23.9262 585.866 -11.2668 565.211 32.4636C601.428 50.9201 568.233 48.351 550.765 41.2631C523.665 55.337 641.526 62.861 556.594 63.0052C557.678 47.092 519.354 88.7716 489.58 76.8522ZM639.618 61.5834C612.308 59.0118 592.059 31.0018 582.132 13.3512C616.63 -0.0309834 509.093 6.42794 572.311 0.662836C624.268 8.05635 627.118 5.18371 675.635 0.866229C664.001 35.3595 630.914 -17.781 632.813 29.7224C607.273 33.7806 641.094 62.1691 656.343 55.4731C656.244 9.58354 677.696 65.1201 644.898 64.2819L639.618 61.5834ZM405.736 57.7131C377.846 58.2705 372.083 35.5886 406.914 46.4157C384.545 35.4015 366.618 39.9843 376.869 24.1173C379.829 9.53489 453.195 40.6185 397.705 14.9907C379.766 -18.1843 443.472 34.9232 405.266 0.948806C406.749 6.80435 465.479 -7.86166 447.541 11.0165C422.052 6.88874 465.685 25.0522 433.916 23.5259C410.009 18.6496 458.889 44.9756 415.532 41.9131C403.153 54.6111 490.658 48.474 430.172 58.5067L416.498 58.667L405.736 57.7131ZM155.877 47.6426C184.692 27.2453 90.5426 37.1592 125.933 12.3202C156.692 11.7247 195.839 1.15245 168.07 42.8361C168.383 48.1562 160.374 51.1288 155.877 47.6426ZM812.776 36.4111C802.353 27.977 791.56 19.022 793.926 8.53691C814.67 -0.481798 828.957 4.35455 854.732 9.2987C834.901 -12.4299 880.308 9.22813 877.29 29.0161C852.064 23.4252 818.815 33.9497 830.984 11.7701C793.106 2.85038 810.25 43.5124 843.46 31.8604C834.493 34.9887 822.473 35.9917 812.776 36.4111Z" fill="#262626"/>
</g>
<defs>
<clipPath id="clip0_981_3">
<rect width="1889" height="894" fill="white"/>
</clipPath>
</defs>
</svg>
